<svg width="24" height="25" fill="none" xmlns="http://www.w3.org/2000/svg"><g clip-path="url(#clip0_22721_7601)"><path d="M24 12.573C24 5.905 18.627.5 12 .5S0 5.905 0 12.573c0 6.026 4.388 11.02 10.125 11.927v-8.437H7.078v-3.49h3.047v-2.66c0-3.026 1.791-4.697 4.533-4.697 1.313 0 2.686.235 2.686.235v2.972H15.83c-1.491 0-1.956.93-1.956 1.885v2.265h3.328l-.532 3.49h-2.796V24.5C19.612 23.594 24 18.599 24 12.573z" fill="#B3B3BA"/></g><defs><clipPath id="clip0_22721_7601"><path fill="#fff" transform="translate(0 .5)" d="M0 0h24v24H0z"/></clipPath></defs></svg>