<svg width="70" height="33" fill="none" xmlns="http://www.w3.org/2000/svg"><path d="M2.643 0H0v19.092h2.643V12.01c0-1.198.298-2.144.894-2.81.597-.665 1.413-1.011 2.424-1.011.868 0 1.594.32 2.177.932.583.626.881 1.411.881 2.356v7.63h2.657v-7.63c0-1.757-.48-3.142-1.439-4.18-.959-1.039-2.216-1.558-3.745-1.558-.44 0-.881.053-1.309.173-.44.12-.79.253-1.075.4a5.455 5.455 0 00-.804.492c-.246.186-.414.32-.492.4-.078.08-.143.133-.169.173V0z" fill="#F0145A"/><path d="M17.585 0H14.86v19.076h2.725V0zm16.074 13.49l.136-1.364c0-1.825-.6-3.352-1.826-4.578-1.226-1.226-2.752-1.826-4.578-1.826-1.826 0-3.407.654-4.715 1.962-1.308 1.308-1.962 2.862-1.962 4.715 0 1.908.681 3.543 2.017 4.906 1.335 1.362 2.943 2.043 4.796 2.043.709 0 1.363-.109 2.017-.3.654-.217 1.199-.435 1.58-.653a8.989 8.989 0 001.172-.818c.355-.3.6-.518.709-.654.109-.136.19-.218.245-.3l-1.771-1.771-.409.518c-.273.327-.736.654-1.39 1.008a4.563 4.563 0 01-2.153.518c-1.063 0-1.962-.327-2.725-1.009-.763-.681-1.226-1.471-1.363-2.398h10.22zm-6.268-5.451c1.008 0 1.826.3 2.507.872.654.6 1.063 1.335 1.227 2.262h-7.577c.246-.927.682-1.663 1.363-2.262.654-.573 1.499-.872 2.48-.872zM46.37 18.286c0 1.199-.355 2.18-1.09 2.943-.71.736-1.609 1.117-2.726 1.117-.49 0-.981-.082-1.444-.218a4.289 4.289 0 01-1.118-.49 6.218 6.218 0 01-.845-.627l-.49-.49c-.082-.082-.136-.164-.19-.219l-1.772 1.772.218.272c.136.19.381.436.708.709.327.245.709.518 1.145.79.436.245.981.463 1.662.654.682.19 1.39.3 2.126.3 1.853 0 3.38-.627 4.66-1.88 1.254-1.281 1.88-2.808 1.88-4.66V5.994H46.37v1.362l-.463-.408c-.3-.273-.763-.546-1.417-.818a5.398 5.398 0 00-2.071-.409c-1.663 0-3.08.627-4.306 1.908-1.227 1.28-1.826 2.807-1.826 4.633s.6 3.352 1.826 4.633c1.226 1.28 2.643 1.907 4.306 1.907.463 0 .899-.054 1.362-.163.436-.136.79-.273 1.09-.409.3-.136.573-.3.818-.49.245-.191.436-.328.49-.382l.191-.19v1.117zm-7.359-6.023c0-1.145.354-2.099 1.09-2.889.736-.79 1.608-1.2 2.59-1.2.98 0 1.852.41 2.588 1.2.709.79 1.09 1.744 1.09 2.889 0 1.144-.381 2.098-1.09 2.889-.736.79-1.608 1.199-2.589 1.199-.98 0-1.853-.41-2.589-1.2s-1.09-1.744-1.09-2.888zm24.309 6.813v-8.448c0-1.39-.519-2.562-1.527-3.489-1.008-.954-2.316-1.417-3.924-1.417-.627 0-1.254.082-1.853.245-.6.191-1.09.382-1.445.6a6.74 6.74 0 00-1.035.763 8.787 8.787 0 00-.627.572c-.082.11-.164.191-.218.273l1.771 1.771.354-.463c.218-.3.6-.572 1.172-.872.573-.3 1.2-.436 1.88-.436.791 0 1.445.245 1.963.708.518.464.763 1.063.763 1.745l-4.77.817c-1.171.191-2.125.654-2.779 1.39-.681.736-1.035 1.635-1.035 2.698 0 1.008.436 1.88 1.308 2.644.899.79 1.99 1.171 3.324 1.171.464 0 .9-.054 1.336-.19a5.872 5.872 0 001.117-.382c.3-.136.572-.3.818-.49.245-.191.409-.328.518-.382.081-.082.136-.163.163-.19v1.362h2.725zm-6.269-2.18c-.708 0-1.28-.164-1.69-.49-.435-.328-.626-.71-.626-1.145 0-.464.136-.872.436-1.172.3-.3.708-.518 1.199-.6l4.224-.681v.272c0 1.227-.3 2.153-.927 2.835-.626.654-1.498.98-2.616.98zM69.333 0h-2.725v19.076h2.725V0zM0 28.33h.853v2.99H2.7v.695H0v-3.686zm8.267 2.895h-1.71l-.327.79h-.874l1.642-3.686h.843l1.648 3.686h-.895l-.327-.79zM8 30.577l-.585-1.41-.584 1.41H8zm9.873-2.247l-1.206 3.685h-.916l-.81-2.496-.838 2.496h-.91l-1.211-3.686h.884l.832 2.59.869-2.59h.79l.842 2.612.858-2.612h.816zm9.072 3.748c-.375 0-.715-.081-1.02-.242a1.877 1.877 0 01-.717-.68 1.9 1.9 0 01-.258-.984c0-.365.086-.692.258-.98.176-.29.414-.517.716-.678a2.125 2.125 0 011.027-.248c.32 0 .607.056.863.169.26.112.477.273.653.484l-.548.505a1.177 1.177 0 00-.926-.431c-.228 0-.432.05-.61.152-.18.099-.32.237-.422.416a1.248 1.248 0 00-.147.61c0 .23.049.433.147.612.102.179.242.319.421.42.18.1.383.148.61.148.37 0 .678-.145.927-.437l.548.506a1.706 1.706 0 01-.653.49c-.26.112-.55.168-.869.168zm6.438 0c-.383 0-.728-.083-1.037-.248a1.867 1.867 0 01-.722-.679 1.891 1.891 0 01-.258-.98c0-.36.087-.685.258-.973a1.85 1.85 0 01.722-.684 2.166 2.166 0 011.037-.248c.382 0 .726.083 1.032.248a1.853 1.853 0 01.984 1.658c0 .361-.087.688-.263.98a1.867 1.867 0 01-.721.678 2.14 2.14 0 01-1.032.248zm0-.727c.217 0 .414-.049.59-.147.175-.102.312-.242.41-.421.102-.18.153-.383.153-.611 0-.228-.051-.432-.153-.61a1.04 1.04 0 00-.41-.417 1.153 1.153 0 00-.59-.152c-.218 0-.414.05-.59.152a1.077 1.077 0 00-.416.416 1.248 1.248 0 00-.147.61c0 .23.049.433.147.612.102.179.24.319.416.42.176.1.372.148.59.148zm8.643.664l-.005-2.212-1.085 1.822h-.384l-1.08-1.774v2.164h-.8v-3.686h.706l1.38 2.29 1.358-2.29h.7l.01 3.686h-.8zm5.902-3.685c.327 0 .61.054.848.163.242.108.428.263.558.463.13.2.195.437.195.71 0 .27-.065.508-.195.711-.13.2-.316.355-.558.463a2.088 2.088 0 01-.848.159h-.742v1.016h-.853v-3.686h1.595zm-.047 1.974c.256 0 .45-.055.584-.164.134-.112.2-.27.2-.474 0-.207-.066-.364-.2-.473-.133-.113-.328-.169-.584-.169h-.695v1.28h.695zm7.131.921H53.3l-.327.79H52.1l1.642-3.686h.842l1.648 3.686h-.895l-.326-.79zm-.269-.648l-.584-1.41-.584 1.41h1.168zm7.885-2.247v3.685h-.7l-1.838-2.238v2.238h-.842v-3.686h.705l1.833 2.238v-2.238h.842zm5.273 2.379v1.306h-.853v-1.317l-1.427-2.369h.906l.984 1.638.985-1.638h.837l-1.432 2.38z" fill="#323264"/></svg>