<svg width="69,3" height="32" viewBox="0 0 130 60" fill="none" xmlns="http://www.w3.org/2000/svg"><path d="M4.957 0H0v35.798h4.957v-13.28c0-2.248.559-4.02 1.676-5.268 1.118-1.248 2.649-1.898 4.544-1.898 1.628 0 2.989.6 4.082 1.748 1.093 1.173 1.652 2.646 1.652 4.419v14.304h4.981V21.52c0-3.296-.899-5.892-2.697-7.84-1.798-1.946-4.155-2.92-7.022-2.92-.826 0-1.652.1-2.454.325-.826.224-1.482.474-2.017.748-.534.275-1.044.575-1.506.924-.462.35-.777.6-.923.75-.146.149-.268.249-.316.324V0z" fill="#F0145A"/><path d="M32.973 0h-5.11v35.768h5.11V0zm30.139 25.293l.255-2.555c0-3.424-1.124-6.285-3.423-8.585-2.3-2.3-5.162-3.424-8.585-3.424-3.424 0-6.387 1.227-8.84 3.68-2.453 2.452-3.68 5.365-3.68 8.84 0 3.577 1.278 6.642 3.782 9.197 2.504 2.555 5.519 3.833 8.993 3.833 1.329 0 2.555-.205 3.782-.562 1.226-.41 2.248-.818 2.963-1.227.767-.46 1.533-.97 2.198-1.533.664-.562 1.124-.97 1.328-1.226.205-.256.358-.409.46-.562l-3.321-3.322-.767.971c-.51.613-1.38 1.227-2.606 1.891-1.277.664-2.606.97-4.037.97-1.992 0-3.679-.612-5.11-1.89-1.43-1.277-2.299-2.76-2.554-4.497h19.162zm-11.753-10.22c1.89 0 3.423.562 4.701 1.635 1.226 1.124 1.993 2.504 2.3 4.241H44.153c.46-1.737 1.277-3.117 2.555-4.241 1.226-1.073 2.81-1.635 4.65-1.635zm35.584 19.213c0 2.248-.664 4.088-2.044 5.518-1.329 1.38-3.015 2.096-5.11 2.096-.92 0-1.84-.154-2.708-.41-.869-.255-1.533-.561-2.095-.92a11.545 11.545 0 01-1.584-1.174l-.92-.92c-.153-.153-.255-.307-.358-.409l-3.32 3.322.408.51c.255.358.715.818 1.328 1.33.614.459 1.329.97 2.147 1.48.817.46 1.84.87 3.117 1.227 1.277.358 2.606.562 3.985.562 3.475 0 6.336-1.175 8.738-3.525 2.35-2.402 3.526-5.264 3.526-8.738V11.24h-5.11v2.554l-.869-.766c-.562-.511-1.43-1.022-2.657-1.533a10.12 10.12 0 00-3.883-.767c-3.117 0-5.774 1.176-8.074 3.577-2.3 2.402-3.423 5.264-3.423 8.687 0 3.424 1.124 6.285 3.423 8.687 2.3 2.401 4.957 3.577 8.074 3.577.868 0 1.686-.102 2.555-.307a17.609 17.609 0 002.044-.766 7.618 7.618 0 001.533-.92c.46-.358.817-.613.92-.716l.357-.357v2.095zM73.147 22.993c0-2.146.664-3.934 2.043-5.416 1.38-1.482 3.015-2.249 4.855-2.249 1.84 0 3.474.767 4.854 2.249 1.329 1.481 2.044 3.27 2.044 5.416 0 2.146-.715 3.935-2.044 5.417-1.38 1.481-3.015 2.248-4.854 2.248-1.84 0-3.475-.767-4.855-2.248-1.38-1.482-2.043-3.27-2.043-5.417zm45.577 12.775v-15.84c0-2.607-.971-4.804-2.861-6.541-1.891-1.789-4.344-2.658-7.359-2.658-1.175 0-2.35.154-3.474.46-1.124.358-2.044.716-2.708 1.124-.665.41-1.329.87-1.942 1.431-.613.511-.971.869-1.175 1.073-.154.205-.307.358-.41.511l3.322 3.322.664-.869c.409-.562 1.125-1.073 2.198-1.635s2.248-.818 3.525-.818c1.482 0 2.709.46 3.68 1.329.97.869 1.43 1.993 1.43 3.27l-8.942 1.533c-2.197.358-3.986 1.226-5.212 2.606-1.277 1.38-1.942 3.066-1.942 5.059 0 1.89.818 3.526 2.453 4.956 1.686 1.482 3.73 2.198 6.234 2.198.869 0 1.686-.103 2.504-.358.869-.204 1.533-.46 2.095-.715a7.633 7.633 0 001.533-.92c.46-.358.766-.613.971-.715.153-.154.255-.307.306-.358v2.555h5.11zm-11.752-4.088c-1.329 0-2.402-.307-3.169-.92-.817-.613-1.175-1.329-1.175-2.146 0-.869.256-1.635.818-2.197.562-.562 1.328-.971 2.248-1.125l7.92-1.277v.511c0 2.3-.562 4.037-1.737 5.314-1.175 1.227-2.81 1.84-4.905 1.84zM130 0h-5.11v35.768H130V0zM0 53.118h1.6v5.607h3.464v1.303H0v-6.91zm15.502 5.429h-3.208l-.613 1.48h-1.638l3.08-6.909h1.58l3.089 6.91h-1.678l-.612-1.48zm-.504-1.214l-1.095-2.645-1.096 2.645h2.191zm18.514-4.215l-2.26 6.91h-1.718l-1.52-4.68-1.57 4.68h-1.707l-2.27-6.91h1.658l1.56 4.857 1.628-4.857h1.48l1.58 4.896 1.61-4.896h1.53zm17.011 7.028a4.032 4.032 0 01-1.915-.454 3.518 3.518 0 01-1.342-1.273 3.562 3.562 0 01-.484-1.846c0-.684.161-1.297.484-1.836.329-.546.776-.97 1.342-1.273a3.98 3.98 0 011.925-.465c.599 0 1.139.106 1.62.316.486.211.894.514 1.223.909l-1.026.947c-.468-.54-1.047-.81-1.738-.81-.428 0-.81.096-1.145.287a2 2 0 00-.79.78 2.34 2.34 0 00-.276 1.145c0 .428.092.81.276 1.145.191.336.455.599.79.79a2.34 2.34 0 001.145.276c.691 0 1.27-.273 1.737-.82l1.027.948a3.2 3.2 0 01-1.224.918 4.056 4.056 0 01-1.629.316zm12.07 0c-.717 0-1.365-.154-1.944-.464a3.5 3.5 0 01-1.353-1.273 3.544 3.544 0 01-.483-1.836c0-.678.161-1.287.483-1.826.33-.547.78-.974 1.353-1.283.579-.31 1.227-.465 1.944-.465.718 0 1.363.155 1.935.465a3.477 3.477 0 011.846 3.109 3.49 3.49 0 01-.493 1.836 3.5 3.5 0 01-1.353 1.273c-.572.31-1.217.464-1.935.464zm0-1.362c.408 0 .777-.092 1.106-.276a2.02 2.02 0 00.77-.79c.19-.336.286-.717.286-1.145 0-.428-.095-.81-.286-1.145a1.952 1.952 0 00-.77-.78 2.164 2.164 0 00-1.106-.286 2.16 2.16 0 00-1.105.286 2.019 2.019 0 00-.78.78 2.34 2.34 0 00-.276 1.145c0 .428.092.81.276 1.145.19.336.45.599.78.79.329.184.697.276 1.105.276zM78.8 60.028l-.01-4.146-2.034 3.415h-.72l-2.024-3.326v4.057h-1.5v-6.91h1.322l2.587 4.294 2.546-4.294h1.313l.02 6.91h-1.5zm11.066-6.91c.612 0 1.142.102 1.59.306.453.204.802.493 1.046.869.243.375.365.819.365 1.332 0 .507-.122.951-.365 1.333a2.37 2.37 0 01-1.047.869c-.447.197-.977.296-1.589.296h-1.392v1.905h-1.599v-6.91h2.991zm-.089 3.702c.48 0 .846-.102 1.096-.306.25-.21.375-.507.375-.889 0-.388-.125-.684-.375-.888-.25-.21-.615-.316-1.096-.316h-1.303v2.399h1.303zm13.371 1.727H99.94l-.612 1.48h-1.639l3.08-6.909h1.579l3.09 6.91h-1.678l-.612-1.48zm-.504-1.214l-1.095-2.645-1.096 2.645h2.191zm14.784-4.215v6.91h-1.313l-3.445-4.195v4.195h-1.579v-6.91h1.322l3.435 4.195v-4.195h1.58zm9.887 4.462v2.448h-1.599V57.56l-2.675-4.442h1.698l1.846 3.07 1.846-3.07H130l-2.685 4.462z" fill="#323264"/></svg>